<svg xmlns="http://www.w3.org/2000/svg" xmlns:xlink="http://www.w3.org/1999/xlink" viewBox="0 0 20 18"><defs><style>.a{fill:none;}.b{fill:#2684ff;}.c{fill:url(#a);}</style><linearGradient id="a" x1="20.52" y1="4.92" x2="10.58" y2="-2.84" gradientTransform="matrix(1, 0, 0, -1, 0, 12.63)" gradientUnits="userSpaceOnUse"><stop offset="0.18" stop-color="#0052cc"/><stop offset="1" stop-color="#2684ff"/></linearGradient></defs><title>Bitbucket-blue</title><polygon class="a" points="7.92 11.95 12.1 11.95 13.11 6.05 6.81 6.05 7.92 11.95"/><path class="b" d="M.65,0A.64.64,0,0,0,0,.63.37.37,0,0,0,0,.74L2.73,17.27a.87.87,0,0,0,.85.73H16.63a.65.65,0,0,0,.64-.54L20,.75A.64.64,0,0,0,19.46,0H.65ZM12.1,12H7.94L6.81,6.05h6.3Z"/><path class="c" d="M19.13,6.05h-6l-1,5.9H7.94L3,17.79a.88.88,0,0,0,.56.21H16.63a.65.65,0,0,0,.64-.54Z"/></svg>