<?xml version="1.0" encoding="utf-8"?>
<!-- Generator: Adobe Illustrator 22.0.1, SVG Export Plug-In . SVG Version: 6.00 Build 0)  -->
<svg version="1.1" id="レイヤー_1" xmlns="http://www.w3.org/2000/svg" xmlns:xlink="http://www.w3.org/1999/xlink" x="0px"
	 y="0px" viewBox="0 0 1800 1200" style="enable-background:new 0 0 1800 1200;" xml:space="preserve">
<style type="text/css">
	.st0{fill:#FF1D25;}
	.st1{fill:#FFFFFF;}
</style>
<g>
	<path d="M637.8,533.4c0.9,0,1.5,0.6,1.5,1.5V550c0,0.9-0.6,1.5-1.5,1.5h-19.4c-0.6,0-1.5-0.6-1.5-1.5V535c0-0.9,0.6-1.5,1.5-1.5
		H637.8 M637.2,565.4c0.9,0,1.5,0.6,1.5,1.5v79.4c0,0.9-0.6,1.5-1.5,1.5h-18.1c-0.9,0-1.5-0.6-1.5-1.5v-79.4c0-0.9,0.6-1.5,1.5-1.5
		H637.2 M637.8,528.5h-19.4c-3.4,0-6.2,2.8-6.2,6.5V550c0,3.4,2.8,6.5,6.5,6.5h19.1c3.4,0,6.5-2.8,6.5-6.5V535
		C644,531.3,641.2,528.5,637.8,528.5L637.8,528.5z M637.2,560.5h-18.1c-3.4,0-6.5,2.8-6.5,6.5v79.4c0,3.4,2.8,6.5,6.5,6.5h17.8
		c3.4,0,6.5-2.8,6.5-6.5v-79.4C643.4,563.3,640.6,560.5,637.2,560.5L637.2,560.5z"/>
	<path d="M752.2,565.4c11.1,0,19.7,8.9,19.7,19.7V646c0,0.9-0.6,1.5-1.5,1.5h-17.8c-0.9,0-1.5-0.6-1.5-1.5v-58.7
		c0-1.8-1.5-3.4-3.4-3.4h-2.2c-7.7,0-13.2,2.8-17.5,4.9c-0.6,0.3-0.6,0.9-0.6,1.2v56c0,0.9-0.6,1.5-1.5,1.5H708
		c-0.9,0-1.5-0.6-1.5-1.5v-58.7c0-1.8-1.5-3.4-3.4-3.4h-2.2c-7.7,0-13.2,2.8-17.5,4.9c-0.6,0.3-0.6,0.9-0.6,1.2v56
		c0,0.9-0.6,1.5-1.5,1.5h-17.8c-0.9,0-1.5-0.6-1.5-1.5v-79c0-0.9,0.6-1.5,1.5-1.5h17.8c0.9,0,1.5,0.6,1.5,1.5v8.6
		c0,0.6,0.3,0.9,0.9,0.9c0.3,0,0.6,0,0.6-0.3c4-4.9,10.5-10.8,20.3-10.8h2.8c9.8,0,16.3,3.7,18.8,11.4c0,0.3,0.6,0.6,0.9,0.6
		s0.6,0,0.6-0.3c4-5.2,11.7-11.7,21.5-11.7H752.2 M752.2,560.5h-2.8c-9.2,0-16.6,4.6-21.2,9.2c-3.4-4.9-9.5-9.2-20.6-9.2h-2.8
		c-6.2,0-12,1.8-17.2,5.8c-0.3-3.4-3.1-5.8-6.5-5.8h-17.8c-3.4,0-6.5,2.8-6.5,6.5v79.4c0,3.4,2.8,6.5,6.5,6.5h17.8
		c3.4,0,6.5-2.8,6.5-6.5v-54.1c3.4-1.8,7.7-3.4,13.2-3.4h0.6v57.5c0,3.4,2.8,6.5,6.5,6.5h17.8c3.4,0,6.5-2.8,6.5-6.5v-54.1
		c3.4-1.8,7.7-3.4,13.2-3.4h0.6v57.5c0,3.4,2.8,6.5,6.5,6.5h17.8c3.4,0,6.5-2.8,6.5-6.5v-61.2C776.9,571.6,765.8,560.5,752.2,560.5
		L752.2,560.5z"/>
	<path d="M843.9,533.4c0.9,0,1.5,0.6,1.5,1.5v111.3c0,0.9-0.6,1.5-1.5,1.5h-17.8c-0.9,0-1.5-0.6-1.5-1.5V535c0-0.9,0.6-1.5,1.5-1.5
		H843.9 M843.9,528.5h-17.8c-3.4,0-6.5,2.8-6.5,6.5v111.3c0,3.4,2.8,6.5,6.5,6.5h17.8c3.4,0,6.5-2.8,6.5-6.5V535
		C850.1,531.3,847.3,528.5,843.9,528.5L843.9,528.5z"/>
	<path d="M913.7,565.4c11.1,0,19.7,8.9,19.7,19.7V646c0,0.9-0.6,1.5-1.5,1.5H914c-0.9,0-1.5-0.6-1.5-1.5v-8.6c0-0.6-0.3-0.9-0.9-0.9
		c-0.3,0-0.6,0-0.6,0.3c-4,4.9-10.5,10.8-20.3,10.8h-6.5c-11.1,0-19.7-8.9-19.7-19.7V622c0-11.7,9.5-21.2,21.2-21.2h4.6
		c6.5,0,12.9,0.6,21.2,2.5c0,0,0,0,0.3,0c0.6,0,0.9-0.3,0.9-0.9v-16.6c0-1.8-1.5-3.4-3.4-3.4H891c-1.8,0-3.4,1.5-3.4,3.4v1.2
		c0,0.9-0.6,1.5-1.5,1.5h-17.5c-0.9,0-1.5-0.6-1.5-1.5v-1.8c0-11.1,8.9-19.7,19.7-19.7H913.7 M888.2,629.7h5.8
		c7.7,0,13.2-2.8,17.5-4.9c0.6-0.3,0.6-0.9,0.6-1.2v-8.9c0-0.9-0.6-1.5-1.5-1.5h-22.5c-1.8,0-3.4,1.5-3.4,3.4v10.1
		C884.8,628.2,886.3,629.7,888.2,629.7 M913.7,560.5H887c-13.5,0-24.6,11.1-24.6,24.6v1.8c0,3.4,2.8,6.5,6.5,6.5h17.5
		c3.4,0,6.2-2.8,6.5-6.2h15.1v10.5c-6.2-1.2-11.7-1.5-17.5-1.5h-4.6c-14.5,0-26.1,11.7-26.1,26.1v5.8c0,13.5,11.1,24.6,24.6,24.6
		h6.5c6.2,0,12-1.8,17.2-5.8c0.3,3.4,3.1,5.8,6.5,5.8h17.8c3.4,0,6.5-2.8,6.5-6.5v-61.2C938.3,571.6,927.3,560.5,913.7,560.5
		L913.7,560.5z M889.7,617.7h17.8v4c-3.4,1.8-7.7,3.4-13.2,3.4h-4.6V617.7L889.7,617.7z"/>
	<path d="M975.2,533.4c0.9,0,1.5,0.6,1.5,1.5v40.6c0,0.6,0.3,0.9,0.9,0.9c0.3,0,0.6,0,0.6-0.3c4-4.9,10.5-10.8,20.3-10.8h6.5
		c11.1,0,19.7,8.9,19.7,19.7v42.8c0,11.1-8.9,19.7-19.7,19.7h-6.5c-9.8,0-16.3-5.8-20.3-10.8c-0.3-0.3-0.3-0.3-0.6-0.3
		c-0.6,0-0.9,0.3-0.9,0.9v8.6c0,0.9-0.6,1.5-1.5,1.5h-17.8c-0.9,0-1.5-0.6-1.5-1.5V535c0-0.9,0.6-1.5,1.5-1.5H975.2 M994.9,629.4
		h5.5c1.8,0,3.4-1.5,3.4-3.4v-39.1c0-1.8-1.5-3.4-3.4-3.4h-5.5c-7.7,0-13.2,2.8-17.5,4.9c-0.6,0.3-0.6,0.9-0.6,1.2v32.9
		c0,0.6,0.3,0.9,0.6,1.2C981.4,626.6,987.2,629.4,994.9,629.4 M975.2,528.5h-17.8c-3.4,0-6.5,2.8-6.5,6.5v111.3
		c0,3.4,2.8,6.5,6.5,6.5h17.8c3.4,0,6.2-2.5,6.5-5.8c5.2,3.7,10.8,5.8,17.2,5.8h6.5c13.5,0,24.6-11.1,24.6-24.6v-43.1
		c0-13.5-11.1-24.6-24.6-24.6h-6.8c-6.2,0-12,1.8-17.2,5.8V535C981.4,531.3,978.6,528.5,975.2,528.5L975.2,528.5z M981.4,591.9
		c3.4-1.8,7.7-3.4,13.2-3.4h4.3v36.3h-4.3c-5.5,0-9.8-1.8-13.2-3.4V591.9L981.4,591.9z"/>
	<path d="M1093.7,565.4c12.9,0,19.7,6.8,19.7,19.7v42.8c0,12.9-6.8,19.7-19.7,19.7h-29.5c-12.9,0-19.7-7.1-19.7-19.7v-42.8
		c0-12.9,7.1-19.7,19.7-19.7H1093.7 M1068.7,629.4h20.3c2.2,0,3.4-1.2,3.4-3.4v-39.1c0-2.2-1.2-3.4-3.4-3.4h-20.3
		c-2.2,0-3.4,1.2-3.4,3.4V626C1065.4,628.2,1066.6,629.4,1068.7,629.4 M1093.7,560.5h-29.5c-15.7,0-24.6,8.9-24.6,24.6v42.8
		c0,15.4,9.2,24.6,24.6,24.6h29.5c15.7,0,24.6-8.9,24.6-24.6v-42.8C1118.3,569.4,1109.3,560.5,1093.7,560.5L1093.7,560.5z
		 M1086.3,588.5c0.9,0,1.5,0.6,1.5,1.5v33.2c0,0.9-0.6,1.5-1.5,1.5h-14.5c-0.9,0-1.5-0.6-1.5-1.5V590c0-0.9,0.6-1.5,1.5-1.5H1086.3z
		"/>
	<path d="M1184.4,565.4c0.9,0,1.5,0.6,1.5,1.5v16.3c0,0.9-0.6,1.5-1.5,1.5h-10.5c-7.7,0-13.2,2.8-17.5,4.9c-0.6,0.3-0.6,0.9-0.6,1.2
		V646c0,0.9-0.6,1.5-1.5,1.5h-17.8c-0.9,0-1.5-0.6-1.5-1.5v-79c0-0.9,0.6-1.5,1.5-1.5h17.8c0.9,0,1.5,0.6,1.5,1.5v8.6
		c0,0.6,0.3,0.9,0.9,0.9c0.3,0,0.6,0,0.6-0.3c4-4.9,10.5-10.8,20.3-10.8H1184.4 M1184.4,560.5h-6.5c-6.2,0-12,1.8-17.2,5.8
		c-0.3-3.4-3.1-5.8-6.5-5.8h-17.8c-3.4,0-6.5,2.8-6.5,6.5v79.4c0,3.4,2.8,6.5,6.5,6.5h17.8c3.4,0,6.5-2.8,6.5-6.5v-53.2
		c3.4-1.8,7.7-3.4,13.2-3.4h10.5c3.4,0,6.5-2.8,6.5-6.5v-16.3C1190.5,563.3,1187.8,560.5,1184.4,560.5L1184.4,560.5z"/>
	<rect x="608" y="678.3" class="st0" width="587.5" height="8.6"/>
	<path class="st1" d="M752.2,565.4c11.1,0,19.7,8.9,19.7,19.7V646c0,0.9-0.6,1.5-1.5,1.5h-17.8c-0.9,0-1.5-0.6-1.5-1.5v-58.7
		c0-1.8-1.5-3.4-3.4-3.4h-2.2c-7.7,0-13.2,2.8-17.5,4.9c-0.6,0.3-0.6,0.9-0.6,1.2v56c0,0.9-0.6,1.5-1.5,1.5H708
		c-0.9,0-1.5-0.6-1.5-1.5v-58.7c0-1.8-1.5-3.4-3.4-3.4h-2.2c-7.7,0-13.2,2.8-17.5,4.9c-0.6,0.3-0.6,0.9-0.6,1.2v56
		c0,0.9-0.6,1.5-1.5,1.5h-17.8c-0.9,0-1.5-0.6-1.5-1.5v-79c0-0.9,0.6-1.5,1.5-1.5h17.8c0.9,0,1.5,0.6,1.5,1.5v8.6
		c0,0.6,0.3,0.9,0.9,0.9c0.3,0,0.6,0,0.6-0.3c4-4.9,10.5-10.8,20.3-10.8h2.8c9.8,0,16.3,3.7,18.8,11.4c0,0.3,0.6,0.6,0.9,0.6
		s0.6,0,0.6-0.3c4-5.2,11.7-11.7,21.5-11.7H752.2"/>
	<path class="st1" d="M637.2,565.4c0.9,0,1.5,0.6,1.5,1.5v79.4c0,0.9-0.6,1.5-1.5,1.5h-18.1c-0.9,0-1.5-0.6-1.5-1.5v-79.4
		c0-0.9,0.6-1.5,1.5-1.5H637.2"/>
	<path class="st1" d="M637.8,533.4c0.9,0,1.5,0.6,1.5,1.5V550c0,0.9-0.6,1.5-1.5,1.5h-19.4c-0.6,0-1.5-0.6-1.5-1.5V535
		c0-0.9,0.6-1.5,1.5-1.5H637.8"/>
	<path class="st1" d="M843.9,533.4c0.9,0,1.5,0.6,1.5,1.5v111.3c0,0.9-0.6,1.5-1.5,1.5h-17.8c-0.9,0-1.5-0.6-1.5-1.5V535
		c0-0.9,0.6-1.5,1.5-1.5H843.9"/>
	<path class="st1" d="M913.7,565.4H887c-11.1,0-19.7,8.9-19.7,19.7v1.8c0,0.9,0.6,1.5,1.5,1.5h17.5c0.9,0,1.5-0.6,1.5-1.5v-1.2
		c0-1.8,1.5-3.4,3.4-3.4h18.1c1.8,0,3.4,1.5,3.4,3.4v16.6c0,0.6-0.3,0.9-0.9,0.9c0,0,0,0-0.3,0c-8.3-1.8-14.8-2.5-21.2-2.5h-4.6
		c-11.7,0-21.2,9.5-21.2,21.2v5.8c0,11.1,8.9,19.7,19.7,19.7h6.5c9.8,0,16.3-5.8,20.3-10.8c0.3-0.3,0.3-0.3,0.6-0.3
		c0.6,0,0.9,0.3,0.9,0.9v8.6c0,0.9,0.6,1.5,1.5,1.5h17.8c0.9,0,1.5-0.6,1.5-1.5v-60.9C933.4,574.3,924.5,565.4,913.7,565.4z
		 M912.5,623.2c0,0.6-0.3,0.9-0.6,1.2c-4,2.5-9.8,4.9-17.5,4.9h-5.8c-1.8,0-3.4-1.5-3.4-3.4v-10.1c0-1.8,1.5-3.4,3.4-3.4H911
		c0.9,0,1.5,0.6,1.5,1.5C912.5,614,912.5,623.2,912.5,623.2z"/>
	<path class="st1" d="M1005.1,565.4h-6.5c-9.8,0-16.3,5.8-20.3,10.8c-0.3,0.3-0.3,0.3-0.6,0.3c-0.6,0-0.9-0.3-0.9-0.9V535
		c0-0.9-0.6-1.5-1.5-1.5h-17.8c-0.9,0-1.5,0.6-1.5,1.5v111.3c0,0.9,0.6,1.5,1.5,1.5h17.8c0.9,0,1.5-0.6,1.5-1.5v-8.6
		c0-0.6,0.3-0.9,0.9-0.9c0.3,0,0.6,0,0.6,0.3c4,4.9,10.5,10.8,20.3,10.8h6.5c11.1,0,19.7-8.9,19.7-19.7v-43.1
		C1024.8,574.3,1016.1,565.4,1005.1,565.4z M1003.8,626c0,1.8-1.5,3.4-3.4,3.4h-5.5c-7.7,0-13.2-2.8-17.5-4.9
		c-0.6-0.3-0.6-0.9-0.6-1.2V590c0-0.6,0.3-0.9,0.6-1.2c4-2.5,9.8-4.9,17.5-4.9h5.5c1.8,0,3.4,1.5,3.4,3.4V626z"/>
	<path class="st1" d="M1093.7,565.4h-29.5c-12.9,0-19.7,6.8-19.7,19.7v42.8c0,12.9,7.1,19.7,19.7,19.7h29.5
		c12.9,0,19.7-6.8,19.7-19.7v-42.8C1113.6,572.2,1106.6,565.4,1093.7,565.4z M1092.4,626c0,2.2-1.2,3.4-3.4,3.4h-20.3
		c-2.2,0-3.4-1.2-3.4-3.4v-39.1c0-2.2,1.2-3.4,3.4-3.4h20.3c2.2,0,3.4,1.2,3.4,3.4V626z"/>
	<path class="st1" d="M1184.4,565.4c0.9,0,1.5,0.6,1.5,1.5v16.3c0,0.9-0.6,1.5-1.5,1.5h-10.5c-7.7,0-13.2,2.8-17.5,4.9
		c-0.6,0.3-0.6,0.9-0.6,1.2V646c0,0.9-0.6,1.5-1.5,1.5h-17.8c-0.9,0-1.5-0.6-1.5-1.5v-79c0-0.9,0.6-1.5,1.5-1.5h17.8
		c0.9,0,1.5,0.6,1.5,1.5v8.6c0,0.6,0.3,0.9,0.9,0.9c0.3,0,0.6,0,0.6-0.3c4-4.9,10.5-10.8,20.3-10.8H1184.4"/>
</g>
</svg>
